<?xml version="1.0" standalone="no"?><!DOCTYPE svg PUBLIC "-//W3C//DTD SVG 1.1//EN" "http://www.w3.org/Graphics/SVG/1.1/DTD/svg11.dtd"><svg t="1673408846240" class="icon" viewBox="0 0 1024 1024" version="1.1" xmlns="http://www.w3.org/2000/svg" p-id="2765" data-spm-anchor-id="a313x.7781069.0.i3" xmlns:xlink="http://www.w3.org/1999/xlink" width="32" height="32"><path d="M512 160c161.322667 14.677333 286.677333 73.344 376.021333 176C977.28 438.656 1022.634667 497.322667 1024 512c-1.365333 14.677333-46.677333 73.344-136.021333 176-89.301333 102.656-214.613333 161.322667-375.978667 176-161.322667-14.677333-286.677333-73.344-376.021333-176C46.72 585.344 1.408 526.677333 0 512c1.365333-14.677333 46.677333-73.344 136.021333-176C225.28 233.344 350.634667 174.677333 512 160z m0 64c-113.322667 7.338667-207.658667 45.482667-283.008 114.517333C153.685333 407.466667 102.314667 465.28 74.965333 512c27.306667 46.677333 78.677333 104.533333 154.026667 173.525333C304.341333 754.474667 398.677333 792.661333 512 800c113.322667-7.338667 207.658667-45.525333 283.008-114.474667 75.306667-68.992 126.677333-126.848 154.026667-173.525333-27.306667-46.677333-78.677333-104.533333-154.026667-173.482667C719.658667 269.482667 625.322667 231.296 512 224z m0 64c63.36 1.365333 116.181333 23.168 158.506667 65.493333 42.325333 42.325333 64.128 95.146667 65.493333 158.506667-1.365333 63.36-23.168 116.181333-65.493333 158.506667-42.325333 42.325333-95.146667 64.128-158.506667 65.493333-63.36-1.365333-116.181333-23.168-158.506667-65.493333-42.325333-42.325333-64.128-95.146667-65.493333-158.506667 1.365333-63.36 23.168-116.181333 65.493333-158.506667 42.325333-42.325333 95.146667-64.128 158.506667-65.493333z m0 64c-45.354667 1.322667-82.986667 17.024-112.981333 47.018667-29.994667 29.994667-45.653333 67.626667-47.018667 112.981333 1.322667 45.354667 17.024 82.986667 47.018667 112.981333 29.994667 29.994667 67.626667 45.653333 112.981333 47.018667 45.354667-1.322667 82.986667-17.024 112.981333-47.018667 29.994667-29.994667 45.653333-67.626667 47.018667-112.981333-1.322667-45.354667-17.024-82.986667-47.018667-112.981333-29.994667-29.994667-67.626667-45.653333-112.981333-47.018667z" fill="#2c2c2c" fill-opacity=".96" p-id="2766" data-spm-anchor-id="a313x.7781069.0.i2" class="selected"></path></svg>